:FULLY-SPECIFIED
:FORCE-ALL-JOINTS-BE-3DOF
:DEGREES
645
root 5.52597 16.0462 -2.85094 19.1225 14.8826 5.38046
lfemur -12.1784 26.395 -33.4785
ltibia 29.5958 0 0
lfoot -41.3418 20.616 0
ltoes 19.1763 0 0
rfemur -65.4945 -30.6849 38.3047
rtibia 76.0768 0 0
rfoot -7.74743 -0.369085 0
rtoes 4.66169 0 0
lowerback 0.310018 -4.72692 -6.24866
upperback -1.36411 -6.36773 -0.224494
thorax -0.943971 -3.11966 3.2868
lowerneck -10.1653 -6.90082 -0.363913
upperneck 5.48452 -9.59043 5.46965
head 3.74184 -4.50984 1.21233
lclavicle 9.61021e-014 -1.67323e-014 0
lhumerus -41.6461 -70.2453 127.034
lradius 71.0229 0 0
lwrist 23.7477 0 0
lhand -3.98246 3.42384 0
lfingers 7.12502 0 0
lthumb 21.7739 32.2725 0
rclavicle 9.61021e-014 -1.67323e-014 0
rhumerus -31.8461 -7.7164 -76.184
rradius 66.6685 0 0
rwrist -28.5339 0 0
rhand -29.043 -45.9346 0
rfingers 7.12502 0 0
rthumb -2.39339 -795.908 0
646
root 5.52676 16.0304 -2.78878 18.847 13.7647 4.92823
lfemur -12.1483 26.2189 -33.5809
ltibia 29.6898 0 0
lfoot -41.3537 20.2391 0
ltoes 18.8209 0 0
rfemur -65.6849 -30.9697 38.61
rtibia 75.8663 0 0
rfoot -8.2821 -1.5011 0
rtoes 5.02761 0 0
lowerback 0.246071 -4.74051 -6.30639
upperback -1.38284 -6.38366 -0.27452
thorax -0.9256 -3.12722 3.26176
lowerneck -10.1604 -6.87443 -0.407829
upperneck 5.10518 -9.54182 5.57656
head 3.63755 -4.49185 1.26631
lclavicle 9.47897e-014 -1.77757e-014 0
lhumerus -42.1625 -70.7987 127.692
lradius 71.4086 0 0
lwrist 23.9043 0 0
lhand -3.84728 3.52557 0
lfingers 7.12502 0 0
lthumb 21.9038 32.3594 0
rclavicle 9.47897e-014 -1.77757e-014 0
rhumerus -33.609 -7.98897 -76.1503
rradius 65.3562 0 0
rwrist -27.3476 0 0
rhand -29.0369 -46.5779 0
rfingers 7.12502 0 0
rthumb -2.38746 -796.552 0
647
root 5.52743 16.0175 -2.72398 18.5768 12.6361 4.48907
lfemur -12.1434 26.0388 -33.6394
ltibia 29.8451 0 0
lfoot -41.3319 19.863 0
ltoes 18.4899 0 0
rfemur -65.8262 -31.2223 38.8841
rtibia 75.6092 0 0
rfoot -8.77424 -2.58891 0
rtoes 5.3733 0 0
lowerback 0.185976 -4.75229 -6.35939
upperback -1.40128 -6.39736 -0.324198
thorax -0.909615 -3.13371 3.23477
lowerneck -10.1531 -6.84758 -0.449924
upperneck 4.73841 -9.49301 5.67907
head 3.53616 -4.47363 1.31834
lclavicle 9.34362e-014 -1.87573e-014 0
lhumerus -42.6118 -71.2968 128.245
lradius 71.783 0 0
lwrist 24.0605 0 0
lhand -3.73091 3.61691 0
lfingers 7.12502 0 0
lthumb 22.0155 32.4372 0
rclavicle 9.34362e-014 -1.87573e-014 0
rhumerus -35.305 -8.2533 -76.0734
rradius 64.117 0 0
rwrist -26.1909 0 0
rhand -29.0356 -47.194 0
rfingers 7.12502 0 0
rthumb -2.38624 -797.167 0
648
root 5.52791 16.0078 -2.65647 18.3176 11.4967 4.06964
lfemur -12.1656 25.8556 -33.6513
ltibia 30.0652 0 0
lfoot -41.2742 19.4889 0
ltoes 18.1859 0 0
rfemur -65.9152 -31.4404 39.1247
rtibia 75.3038 0 0
rfoot -9.22043 -3.62748 0
rtoes 5.69769 0 0
lowerback 0.129935 -4.76222 -6.40734
upperback -1.4195 -6.4088 -0.373514
thorax -0.896204 -3.13911 3.20572
lowerneck -10.1434 -6.82011 -0.489888
upperneck 4.38565 -9.44386 5.77668
head 3.43804 -4.45508 1.36819
lclavicle 9.20439e-014 -1.96711e-014 0
lhumerus -42.9885 -71.7362 128.683
lradius 72.1451 0 0
lwrist 24.2158 0 0
lhand -3.63444 3.69719 0
lfingers 7.12502 0 0
lthumb 22.1081 32.5054 0
rclavicle 9.20439e-014 -1.96711e-014 0
rhumerus -36.928 -8.50897 -75.9504
rradius 62.9566 0 0
rwrist -25.0677 0 0
rhand -29.0397 -47.7804 0
rfingers 7.12502 0 0
rthumb -2.39014 -797.753 0
